<svg xmlns="http://www.w3.org/2000/svg" width="512" height="512" viewBox="0 0 44.557 44.557"><path d="M42.313 20.889L22.592 1.166C21.815.389 20.797 0 19.779 0s-2.037.389-2.813 1.166l-10.8 10.798c-1.554 1.554-1.554 4.122 0 5.676l1.79 1.839h4.129l-3.854-3.904c-.27-.271-.31-.61-.31-.774s.04-.491.31-.761l1.426-1.382 6.777 6.821h6.501L12.907 9.401l6.123-6.147c.27-.27.585-.321.749-.321s.479.034.749.303l19.722 19.72c.271.271.312.583.312.748 0 .164-.07.478-.341.749l-1.118 1.091v4.129l3.184-3.155c1.553-1.557 1.581-4.075.026-5.629z" data-original="#000000" class="active-path" data-old_color="#FDFAFA" fill="#FFFEFE"/><path d="M33.06 21.328H5.167c-2.197 0-4.076 1.77-4.076 3.967v10.55h35.898v-10.55c0-2.197-1.732-3.967-3.929-3.967zM10.839 32.253c-.779 0-1.484-.31-2.004-.81-.52.5-1.226.81-2.003.81a2.895 2.895 0 112.003-4.982 2.895 2.895 0 112.004 4.982zm-9.748 8.313c0 2.197 1.878 3.99 4.076 3.99H33.06c2.197 0 3.93-1.793 3.93-3.99v-.234H1.091v.234z" data-original="#000000" class="active-path" data-old_color="#FDFAFA" fill="#FFFEFE"/></svg>