<svg xmlns="http://www.w3.org/2000/svg" height="512" viewBox="-44 1 511 511.999" width="512"><path d="M351.234 71.79h62.903l-62.903-62.9zm0 0" data-original="#000000" class="active-path" data-old_color="#000000" fill="#FFF"/><path d="M336.059 102.14c-8.38 0-15.172-6.792-15.172-15.175V0H67.516c-8.38 0-15.172 6.793-15.172 15.176V285.64c15.797-6.598 33.12-10.25 51.285-10.25 8.973 0 17.738.894 26.219 2.59a15.063 15.063 0 01-1.602-6.75c0-8.38 6.797-15.172 15.176-15.172h182.773c8.38 0 15.176 6.793 15.176 15.171 0 8.383-6.797 15.176-15.176 15.176H156.703c47.27 20.567 80.406 67.715 80.406 122.465 0 21.254-5 41.356-13.875 59.211H408.07c8.383 0 15.176-6.797 15.176-15.176V102.141zm-64.496 49.712c0 8.382-6.793 15.175-15.176 15.175H143.422c-8.379 0-15.176-6.793-15.176-15.175 0-8.38 6.797-15.176 15.176-15.176h112.965c8.383 0 15.175 6.793 15.175 15.176zm54.632 74.867H143.422c-8.379 0-15.176-6.797-15.176-15.176 0-8.383 6.797-15.176 15.176-15.176h182.773c8.38 0 15.176 6.793 15.176 15.176 0 8.379-6.797 15.176-15.176 15.176zm0 0" data-original="#000000" class="active-path" data-old_color="#000000" fill="#FFF"/><path d="M206.762 408.871c0-56.867-46.266-103.129-103.133-103.129C46.766 305.742.5 352.004.5 408.872.5 465.733 46.762 512 103.629 512c56.867 0 103.133-46.266 103.133-103.129zm-111.36 41.18a15.106 15.106 0 01-9.574 3.406 15.16 15.16 0 01-11.473-5.234L43.06 412.129c-5.493-6.332-4.809-15.914 1.523-21.406 6.332-5.489 15.914-4.809 21.406 1.523l21.66 24.98 51.579-41.992c6.5-5.289 16.058-4.312 21.347 2.188 5.293 6.5 4.313 16.058-2.187 21.351zm0 0" data-original="#000000" class="active-path" data-old_color="#000000" fill="#FFF"/></svg>