<svg width="20" height="24" viewBox="0 0 20 24" fill="none" xmlns="http://www.w3.org/2000/svg">
<path d="M17.8571 4H2.14286C1.57454 4 1.02949 4.22577 0.627628 4.62763C0.225765 5.02949 0 5.57454 0 6.14286V21.8571C0 22.4255 0.225765 22.9705 0.627628 23.3724C1.02949 23.7742 1.57454 24 2.14286 24H8.27009V17.2004H5.45759V14H8.27009V11.5607C8.27009 8.78616 9.92188 7.25357 12.4518 7.25357C13.6634 7.25357 14.9304 7.46964 14.9304 7.46964V10.1929H13.5344C12.1589 10.1929 11.7299 11.0464 11.7299 11.9219V14H14.8004L14.3094 17.2004H11.7299V24H17.8571C18.4255 24 18.9705 23.7742 19.3724 23.3724C19.7742 22.9705 20 22.4255 20 21.8571V6.14286C20 5.57454 19.7742 5.02949 19.3724 4.62763C18.9705 4.22577 18.4255 4 17.8571 4Z" fill="#100A30"/>
</svg>
