<svg width="20" height="24" viewBox="0 0 20 24" fill="none" xmlns="http://www.w3.org/2000/svg">
<g clip-path="url(#clip0_2_323)">
<path d="M10.0022 8.87225C7.16453 8.87225 4.87563 11.1617 4.87563 14C4.87563 16.8383 7.16453 19.1277 10.0022 19.1277C12.8399 19.1277 15.1288 16.8383 15.1288 14C15.1288 11.1617 12.8399 8.87225 10.0022 8.87225ZM10.0022 17.3337C8.16843 17.3337 6.66927 15.8387 6.66927 14C6.66927 12.1613 8.16397 10.6663 10.0022 10.6663C11.8405 10.6663 13.3352 12.1613 13.3352 14C13.3352 15.8387 11.836 17.3337 10.0022 17.3337ZM16.5343 8.6625C16.5343 9.32746 15.9989 9.85853 15.3385 9.85853C14.6737 9.85853 14.1428 9.32299 14.1428 8.6625C14.1428 8.00201 14.6782 7.46647 15.3385 7.46647C15.9989 7.46647 16.5343 8.00201 16.5343 8.6625ZM19.9297 9.87638C19.8539 8.27424 19.488 6.85507 18.3146 5.68582C17.1456 4.51657 15.7267 4.15062 14.1249 4.07029C12.4741 3.97657 7.52593 3.97657 5.87507 4.07029C4.27775 4.14616 2.8589 4.5121 1.68544 5.68136C0.511991 6.85061 0.150586 8.26978 0.0702733 9.87192C-0.0234244 11.5231 -0.0234244 16.4724 0.0702733 18.1236C0.146124 19.7258 0.511991 21.1449 1.68544 22.3142C2.8589 23.4834 4.27329 23.8494 5.87507 23.9297C7.52593 24.0234 12.4741 24.0234 14.1249 23.9297C15.7267 23.8538 17.1456 23.4879 18.3146 22.3142C19.4835 21.1449 19.8494 19.7258 19.9297 18.1236C20.0234 16.4724 20.0234 11.5276 19.9297 9.87638ZM17.797 19.8953C17.449 20.7701 16.7752 21.4439 15.8963 21.7965C14.58 22.3186 11.4568 22.1981 10.0022 22.1981C8.54769 22.1981 5.41997 22.3142 4.1082 21.7965C3.23369 21.4484 2.55996 20.7745 2.20747 19.8953C1.68544 18.5788 1.80591 15.4549 1.80591 14C1.80591 12.5451 1.68991 9.41671 2.20747 8.10465C2.55549 7.22995 3.22922 6.55606 4.1082 6.2035C5.42443 5.68136 8.54769 5.80185 10.0022 5.80185C11.4568 5.80185 14.5845 5.68582 15.8963 6.2035C16.7708 6.5516 17.4445 7.22548 17.797 8.10465C18.319 9.42118 18.1985 12.5451 18.1985 14C18.1985 15.4549 18.319 18.5833 17.797 19.8953Z" fill="#100A30"/>
</g>
<defs>
<clipPath id="clip0_2_323">
<rect width="20" height="20" fill="white" transform="translate(0 4)"/>
</clipPath>
</defs>
</svg>
