<svg width="20" height="24" viewBox="0 0 20 24" fill="none" xmlns="http://www.w3.org/2000/svg">
<path d="M18.5714 4H1.42411C0.638393 4 0 4.64732 0 5.44196V22.558C0 23.3527 0.638393 24 1.42411 24H18.5714C19.3571 24 20 23.3527 20 22.558V5.44196C20 4.64732 19.3571 4 18.5714 4ZM6.04464 21.1429H3.08036V11.5982H6.04911V21.1429H6.04464ZM4.5625 10.2946C3.61161 10.2946 2.84375 9.52232 2.84375 8.57589C2.84375 7.62946 3.61161 6.85714 4.5625 6.85714C5.50893 6.85714 6.28125 7.62946 6.28125 8.57589C6.28125 9.52679 5.51339 10.2946 4.5625 10.2946ZM17.1562 21.1429H14.192V16.5C14.192 15.3929 14.1696 13.9688 12.6518 13.9688C11.1071 13.9688 10.8705 15.1741 10.8705 16.4196V21.1429H7.90625V11.5982H10.75V12.9018H10.7902C11.1875 12.1518 12.1563 11.3616 13.5982 11.3616C16.5982 11.3616 17.1562 13.3393 17.1562 15.9107V21.1429Z" fill="#100A30"/>
</svg>
