<svg xmlns="http://www.w3.org/2000/svg" viewBox="0 0 512.032 512.032" width="512" height="512"><path d="M256.016 321.632V126.368c-5.536.512-11.008 1.376-16.576 1.632H80.016c-8.832 0-16 7.168-16 16v16h-48c-8.832 0-16 7.168-16 16v96c0 8.832 7.168 16 16 16h48v16c0 8.832 7.168 16 16 16h9.696l64.32 171.456c3.936 10.272 12.736 17.728 23.552 19.904 2.144.448 4.288.672 6.4.672 8.544 0 16.672-3.392 22.496-9.472l38.432-38.112c9.824-9.824 12.16-25.152 5.888-37.024L197.104 320H239.6c5.504.256 10.944 1.12 16.416 1.632zM509.392 7.744c-.32-.544-.608-.992-1.024-1.504-1.76-2.24-3.968-4.064-6.688-5.12-.096-.032-.16-.16-.256-.192-.32-.096-.608.064-.928-.032-1.44-.416-2.88-.896-4.48-.896-1.088 0-2.048.416-3.104.64-.608.128-1.184.16-1.792.352-2.752.896-5.12 2.432-7.008 4.544-.128.128-.32.16-.448.288C433.776 66.4 364.208 106.912 288.016 121.76v204.512c76.192 14.848 145.76 55.328 195.648 115.904.128.16.352.224.512.416 1.12 1.248 2.496 2.24 3.968 3.072.48.288.864.704 1.344.928 2.016.864 4.192 1.408 6.528 1.408 1.824 0 3.616-.32 5.408-.928.096-.032.16-.16.256-.192 2.72-1.056 4.928-2.848 6.688-5.12.384-.512.672-.96 1.024-1.504 1.536-2.464 2.624-5.184 2.624-8.256V16c0-3.072-1.088-5.792-2.624-8.256z" data-original="#000000" class="active-path" data-old_color="#000000" fill="#FFF"/></svg>